<?xml version="1.0" encoding="utf-8"?>
<!-- Generator: Adobe Illustrator 22.1.0, SVG Export Plug-In . SVG Version: 6.00 Build 0)  -->
<svg version="1.1" id="Layer_1" xmlns="http://www.w3.org/2000/svg" xmlns:xlink="http://www.w3.org/1999/xlink" x="0px" y="0px"
	 viewBox="0 0 276.8 503.4" style="enable-background:new 0 0 276.8 503.4;" xml:space="preserve">
<style type="text/css">
	.st0{fill:#414042;}
	.st1{fill:#FFFFFF;}
	.st2{fill:#808285;}
</style>
<title>independent-seal</title>
<g>
	<path class="st0" d="M201.8,93.5c0-0.1,0-0.2,0-0.3c0-0.2,0-0.4,0-0.6c0-0.1,0-0.2,0-0.2c0-0.2,0-0.5,0-0.7l0,0
		c0-2.8-0.2-5.7-0.7-8.5c-0.2-1.1-0.4-2.1-0.7-3.1c-0.3-1-0.6-1.9-1-2.8c-1.4-3.3-3.6-6.2-6.5-8.4l0,0l-0.2-0.1h-0.1l-0.2-0.1h-0.1
		l-0.2-0.1H192l-0.2-0.1h-0.2l-0.3-0.1h-0.2l-0.3-0.1h-0.2l-0.4-0.1h-0.2l-0.6-0.1l0,0l-0.6-0.1l0,0l-0.7-0.1l0,0
		c-1.8-0.2-4-0.4-6.4-0.6l0,0l-2-0.1l0,0c-1.6-0.1-3.4-0.2-5.2-0.3l0,0l-2.2-0.4l0,0c-4.4-0.2-9.1-0.3-13.6-0.4l0,0
		c-4.3-0.1-8.3-0.1-11.7-0.2h-0.4h-1.3h-13.1h-1.3h-0.4c-3.4,0-7.4,0.1-11.7,0.2l0,0c-4.4,0.1-9.2,0.2-13.6,0.4l0,0l-2.2,0.1l0,0
		c-1.8,0.1-3.6,0.2-5.2,0.3l0,0l-2,0.1l0,0c-2.4,0.2-4.6,0.3-6.4,0.6l0,0l-0.7,0.1l0,0L88.2,68l0,0l-0.6,0.1h-0.2l-0.4,0.1h-0.2
		l-0.3,0.1h-0.2l-0.3,0.1H86l-0.2,0.1h-0.1l-0.2,0.1h-0.1l-0.2,0.1H85l-0.2,0.1l0,0c-2.9,2.3-5.2,5.3-6.6,8.7
		c-0.4,0.9-0.7,1.9-1,2.8c-0.3,1-0.5,2-0.7,3.1c-0.5,2.8-0.7,5.7-0.7,8.5l0,0c0,0.2,0,0.4,0,0.7c0,0.1,0,0.2,0,0.2s0,0.4,0,0.6
		s0,0.2,0,0.3s0,0.4,0,0.6s0,0.2,0,0.3s0,0.1,0,0.1v0.1v0.3v0.4v0.4c0,0.1,0,0.1,0,0.2c0.1,0.5,0.1,1,0.1,1.5v0.1
		c0,0.3,0.1,0.6,0.1,0.9c0,0.1,0,0.1,0,0.2c0,0.2,0,0.5,0.1,0.7v0.3c0,0.1,0,0.2,0,0.3s0,0.2,0,0.3s0,0.2,0,0.2s0,0.2,0,0.3
		s0,0.1,0,0.2v0.4c0,0.3,0,0.7,0,1.1c0,0.1,0,0.3,0,0.4s0,0.6,0,0.9c0,0.1,0,0.3,0,0.4c0,0.3,0,0.7,0,1c0,0.2,0,0.3,0,0.5
		c0,0.3,0,0.7,0,1v0.7c0,0.3,0,0.7,0,1.1s0,0.4,0,0.7c0,0.5,0,1,0,1.6v0.2c0,1.3,0,2.8,0,4.3v0.3c0,0.7,0,1.4,0,2.1v0.4
		c0,0.6,0,1.3,0,2v0.7c0,0.6,0,1.2,0,1.8v0.7c0,0.8,0,1.6,0,2.4v0.1c0,3.7,0,7.7,0,12l0,0c0,1,0,2.1,0,3.2v3.5c0,5.5,0,11.3,0,17.3
		v0.1c0,6,0,12.2,0,18.5v21.3c0,0.7,0,1.4,0,2.1v3.8c0,1.4,0,2.7,0,4.1v2.7c0,0.5,0,0.9,0,1.4v2.9c0,0.6,0,1.2,0,1.7v4.2
		c0,1.3,0,2.7,0,4v1c0,1,0,1.9,0,2.9v1.9c0,0.6,0,1.3,0,2s0,1.2,0,1.8c0,1.2,0,2.4,0,3.6v0.4c0,1.1,0,2.2,0,3.3v1c0,0.9,0,1.7,0,2.6
		c0,0.3,0,0.7,0,1c0,1.1,0,2.3,0,3.4c0,0.9,0,1.8,0,2.7c0,0.9,0,1.8,0,2.7c0,0.3,0,0.6,0,1c0,0.6,0,1.1,0,1.6v1c0,0.5,0,1.1,0,1.6
		v0.8c0,0.5,0,1.1,0,1.6v0.8c0,0.5,0,0.9,0,1.3v0.7c0,0.5,0,0.9,0,1.3c0,0.2,0,0.5,0,0.7c0,0.4,0,0.8,0,1.1c0,0.2,0,0.4,0,0.6
		c0,0.5,0,1.1,0,1.5c0,0.9,0,1.7,0,2.4c0,0.3,0,0.6,0,0.9s0,0.5,0,0.7s0,0.4,0,0.5c0,0.9,0,1.8,0,2.8c0,0.1,0,0.2,0,0.3
		c0,0.9,0,1.7-0.1,2.5l0,0c0,1.4-0.1,2.7-0.1,4.1v0.8c0,0.3,0,0.5,0,0.8s0,0.3,0,0.5v0.8c0,0.2,0,0.3,0,0.5s0,0.6,0,0.9
		c0,0.1,0,0.3,0,0.4c0,0.4,0,0.7,0.1,1.1c0,0.1,0,0.1,0,0.2c0,0.4,0.1,0.9,0.1,1.3c0,0.1,0,0.2,0,0.4l0.1,1c0,0.2,0,0.3,0.1,0.5
		s0.1,0.6,0.1,0.9s0.1,0.4,0.1,0.5s0.1,0.6,0.2,0.9s0.1,0.4,0.1,0.5s0.1,0.6,0.2,0.9s0.1,0.3,0.1,0.5c0.1,0.4,0.2,0.7,0.3,1.1
		l0.1,0.3c0.1,0.5,0.3,1,0.4,1.5c0,0.1,0.1,0.2,0.1,0.3c0.1,0.4,0.2,0.8,0.4,1.2c0.1,0.2,0.1,0.4,0.2,0.5c0.1,0.3,0.2,0.7,0.4,1
		l0.2,0.6c0.1,0.3,0.3,0.6,0.4,1l0.3,0.6l0.5,1l0.3,0.6l0.6,1.2c0.1,0.2,0.2,0.3,0.2,0.5c0.3,0.6,0.6,1.1,0.9,1.7l0.1,0.2
		c0.3,0.5,0.6,1,0.8,1.5c0.1,0.2,0.2,0.4,0.3,0.6l0.7,1.2l0.4,0.7c0.2,0.4,0.5,0.8,0.8,1.2c0.2,0.2,0.3,0.5,0.5,0.7l0.8,1.2
		c0.2,0.2,0.3,0.5,0.5,0.7l1,1.3l0.4,0.6c1,1.3,2,2.7,3.2,4.1l0.1,0.1l0.7,0.9l0.7,0.9l1,1.1l0.7,0.8l1.1,1.3
		c0.2,0.2,0.4,0.5,0.7,0.7l1.7,1.8l0.2,0.2l0.8,0.9c0.4,0.4,0.7,0.8,1.1,1.2l0,0c0,0.1,0.1,0.1,0.1,0.2l0,0c0.2,0.3,0.4,0.5,0.5,0.8
		l0,0l0.2,0.3l0,0c0.1,0.2,0.2,0.5,0.3,0.7l0,0c0.1,0.3,0.2,0.5,0.2,0.8l0,0c0,0.1,0,0.1,0,0.2l0,0c0,0.2,0.1,0.5,0.2,0.7l0,0
		c0.1,0.3,0.1,0.6,0.1,0.9c0,0,0,0.1,0,0.1c0,0.3,0.1,0.6,0.1,1c0,0,0,0.1,0,0.1c0,0.3,0,0.7,0.1,1.1c0,0,0,0.1,0,0.1
		c0,0.4,0,0.8,0,1.3c0,1.1,0,2.3-0.1,3.7c0,0.6-0.1,1.2-0.1,1.9c0,0.1,0,0.1,0,0.2v1.7c0,0.3,0,0.6,0,0.9s0,0.4,0,0.6s0,0.7,0,1v0.5
		c0,0.4,0,0.8,0.1,1.2v0.4c0,0.5,0.1,1,0.1,1.5c0,0,0,0.1,0,0.1c0.8,9.3,3,20.9,5.4,32.6v0.1c0.2,1.3,0.5,2.5,0.8,3.8
		c0.6,3.1,1.3,6.2,1.9,9.3c0.1,0.4,0.2,0.8,0.2,1.2c0.2,1.2,0.5,2.3,0.7,3.5c0,0.2,0.1,0.4,0.1,0.6c0.2,1,0.4,2,0.6,3l0.1,0.6
		c0.4,2.3,0.8,4.6,1.2,6.7v0c0.3,2,0.6,3.9,0.9,5.7c0,0.1,0,0.2,0,0.3c0.1,0.7,0.2,1.5,0.3,2.2c0,0.2,0,0.4,0.1,0.6
		c0.1,0.8,0.2,1.6,0.2,2.3l0,0c0.1,1.6,0.2,3.1,0.3,4.6c0,0.7,0,1.4,0,2l0,0l0,0c0,0.6,0,1.2-0.1,1.8c-0.5,0.1-0.9,0.3-1.2,0.6l0,0
		l-0.1,0c0,0,0,0-0.1,0.1c0,0-0.1,0.1-0.1,0.1c-0.1,0.1-0.1,0.1-0.1,0.2c-0.1,0.1-0.2,0.3-0.3,0.4l0,0c-0.1,0.1-0.1,0.3-0.2,0.5
		c0,0,0,0.1,0,0.1c0,0.1,0,0.2,0,0.2c0,0.2,0,0.3,0,0.5c0,0.1,0,0.1,0,0.2s0,0.1,0,0.1s0,0.3,0.1,0.5c0,0.2,0.1,0.4,0.1,0.6
		c0,0.1,0.1,0.2,0.1,0.3v0.1c0,0.1,0.1,0.2,0.1,0.3c0,0,0,0.1,0,0.1l0.2,0.3c0.2,0.4,0.4,0.8,0.7,1.1l0.1,0.1l0,0
		c0,0,0.2,0.3,0.3,0.4c0.2,0.2,0.3,0.3,0.5,0.5l0,0l0,0l0,0l-0.1,3c-1.3,0.1-2.6,0.3-3.8,0.5c-0.3,0.3,0,1.9,0.8,3.4
		c0.6,1.1,3.8,7.2,7.5,7.2h37.9c3.7,0,6.8-6,7.5-7.2c0.8-1.5,1.1-3.1,0.8-3.4c-1.3-0.3-2.5-0.5-3.8-0.5l-0.1-3l0,0l0,0l0,0
		c0.2-0.2,0.4-0.3,0.5-0.5c0.2-0.2,0.2-0.3,0.3-0.4l0,0l0.1-0.1c0.3-0.3,0.5-0.7,0.7-1.1c0.1-0.1,0.1-0.2,0.2-0.3V447
		c0-0.1,0.1-0.2,0.1-0.3c0,0,0,0,0-0.1c0-0.1,0.1-0.2,0.1-0.3c0.1-0.2,0.1-0.4,0.1-0.6c0-0.2,0-0.3,0.1-0.5c0,0,0-0.1,0-0.1
		c0-0.1,0-0.1,0-0.2c0-0.2,0-0.3,0-0.5c0-0.1,0-0.2,0-0.2c0,0,0-0.1,0-0.1c0-0.2-0.1-0.3-0.2-0.5l0,0c-0.1-0.1-0.2-0.2-0.3-0.3
		l-0.1-0.2l-0.1-0.1l-0.1-0.1l-0.1,0l0,0c-0.4-0.3-0.8-0.5-1.2-0.6c0-0.6-0.1-1.2-0.1-1.8l0,0l0,0c0-0.6,0-1.3,0-2
		c0-1.4,0.1-3,0.3-4.6l0,0c0.1-0.8,0.1-1.5,0.2-2.3c0-0.2,0-0.4,0.1-0.6c0.1-0.7,0.2-1.4,0.3-2.2c0-0.1,0-0.2,0-0.3
		c0.2-1.8,0.5-3.8,0.9-5.7v0c0.4-2.2,0.8-4.4,1.2-6.7l0.1-0.6c0.2-1,0.4-2,0.6-3c0-0.2,0.1-0.4,0.1-0.6c0.2-1.2,0.4-2.3,0.7-3.5
		c0.1-0.4,0.2-0.8,0.2-1.2c0.6-3.1,1.2-6.2,1.9-9.3c0.2-1.3,0.5-2.5,0.8-3.8v-0.1c2.4-11.7,4.6-23.3,5.4-32.6v-0.1
		c0-0.5,0.1-1,0.1-1.5v-0.4c0-0.4,0-0.8,0.1-1.2v-0.5c0-0.3,0-0.7,0-1s0-0.4,0-0.6s0-0.6,0-0.9v-1.7c0-0.1,0-0.1,0-0.2
		c0-0.6,0-1.3-0.1-1.9c-0.1-1.4-0.1-2.6-0.1-3.7c0-0.4,0-0.9,0-1.3c0,0,0-0.1,0-0.1c0-0.4,0-0.8,0-1.1c0,0,0-0.1,0-0.1
		c0-0.3,0.1-0.7,0.1-1v-0.1c0-0.3,0.1-0.6,0.1-0.9l0,0c0-0.3,0.1-0.5,0.1-0.7l0,0c0-0.1,0-0.1,0-0.2l0,0c0.1-0.3,0.2-0.6,0.2-0.8
		l0,0c0.1-0.2,0.2-0.5,0.3-0.7l0,0c0-0.1,0.1-0.2,0.1-0.3l0,0c0.2-0.3,0.3-0.6,0.5-0.8l0,0l0.1-0.2l0,0c0.4-0.5,0.9-0.9,1.4-1.3
		l0.8-0.9l0.2-0.2l1.7-1.8c0.2-0.2,0.4-0.5,0.6-0.7l1.1-1.3l0.7-0.8l0.9-1.1l0.7-0.9l0.7-0.9l0.1-0.1c1.1-1.4,2.2-2.8,3.1-4.1
		l0.4-0.6l1-1.3c0.2-0.2,0.3-0.5,0.5-0.7l0.8-1.2c0.2-0.2,0.3-0.5,0.5-0.7c0.3-0.4,0.5-0.8,0.8-1.2l0.4-0.7l0.7-1.2
		c0.1-0.2,0.2-0.4,0.4-0.6c0.3-0.5,0.6-1,0.9-1.5l0.1-0.2c0.3-0.6,0.6-1.1,0.9-1.7l0.2-0.5c0.2-0.4,0.4-0.8,0.6-1.2l0.3-0.6
		c0.2-0.4,0.3-0.7,0.5-1l0.3-0.6c0.1-0.3,0.3-0.7,0.4-1l0.2-0.6c0.1-0.3,0.2-0.7,0.4-1c0.1-0.2,0.1-0.4,0.2-0.5
		c0.1-0.4,0.3-0.8,0.4-1.2c0-0.1,0.1-0.2,0.1-0.3c0.2-0.5,0.3-1,0.4-1.5l0.1-0.3c0.1-0.4,0.2-0.7,0.3-1.1l0.1-0.5
		c0.1-0.3,0.1-0.6,0.2-0.9s0.1-0.4,0.1-0.5c0-0.2,0.1-0.6,0.2-0.9c0-0.3,0.1-0.4,0.1-0.5s0.1-0.6,0.1-0.9c0.1-0.3,0.1-0.3,0.1-0.5
		c0-0.2,0.1-0.6,0.1-1c0-0.1,0-0.2,0.1-0.4c0-0.4,0.1-0.9,0.1-1.3c0-0.1,0-0.1,0-0.2c0-0.4,0-0.7,0.1-1.1c0-0.1,0-0.3,0-0.4
		c0-0.3,0-0.6,0-0.9s0-0.3,0-0.5v-0.8c0-0.2,0-0.3,0-0.5s0-0.5,0-0.8v-0.8c0-1.4,0-2.8-0.1-4.1l0,0c0-0.9,0-1.7-0.1-2.6v-0.3
		c0-0.9,0-1.9,0-2.8c0-0.1,0-0.3,0-0.5s0-0.5,0-0.7s0-0.6,0-0.9c0-0.7,0-1.5,0.1-2.4c0-0.5,0-1,0-1.5c0-0.2,0-0.4,0-0.6
		c0-0.4,0-0.8,0-1.1c0-0.2,0-0.4,0-0.7c0-0.4,0-0.9,0-1.3v-0.8c0-0.4,0-0.9,0-1.3v-0.8c0-0.5,0-1,0-1.6v-0.8c0-0.5,0-1,0-1.6v-1
		c0-0.5,0-1.1,0-1.6v-1c0-0.9,0-1.8,0-2.7c0-0.9,0-1.8,0-2.7c0-1.1,0-2.2,0-3.4c0-0.3,0-0.7,0-1c0-0.8,0-1.7,0-2.6v-1.1
		c0-1.1,0-2.2,0-3.3v-0.4c0-1.2,0-2.4,0-3.6c0-0.6,0-1.2,0-1.8s0-1.3,0-2v-1.9c0-0.9,0-1.9,0-2.9v-1c0-1.3,0-2.6,0-4v-1.5
		c0-0.9,0-1.8,0-2.7v-1.7c0-0.9,0-1.9,0-2.9v-4c0-1.4,0-2.7,0-4.1v-3.8c0-0.7,0-1.4,0-2.1V196c0-1.1,0-2.2,0-3.3v-12.5
		c0-6.3,0-12.5,0-18.5v-0.1c0-6,0-11.8,0-17.3v-3.5c0-1.1,0-2.1,0-3.2l0,0c0-4.2,0-8.2,0-12v-0.1c0-0.8,0-1.6,0-2.4v-0.7
		c0-0.6,0-1.2,0-1.8v-0.7c0-0.7,0-1.3,0-2v-0.4c0-0.7,0-1.4,0-2.1v-0.2c0-1.5,0-2.9,0-4.3v-0.2c0-0.5,0-1.1,0-1.6v-0.7
		c0-0.4,0-0.7,0-1.1s0-0.4,0-0.7s0-0.7,0-1c0-0.2,0-0.3,0-0.5c0-0.4,0-0.7,0-1c0-0.1,0-0.3,0-0.4c0-0.3,0-0.6,0-0.9s0-0.3,0-0.4
		c0-0.4,0-0.8,0-1.1V101c0,0,0-0.1,0-0.2s0-0.2,0-0.3s0-0.2,0-0.2s0-0.2,0-0.3s0-0.2,0-0.3v-0.3c0-0.2,0-0.4,0-0.7c0,0,0-0.1,0-0.2
		c0-0.3,0-0.6,0.1-0.9v-0.1c0-0.5,0.1-1,0.1-1.5c0-0.1,0-0.1,0-0.2v-0.4V95v-0.3v-0.2c0-0.1,0-0.2,0-0.3S201.7,93.7,201.8,93.5z"/>
	<path class="st1" d="M113.2,212v-39.8h20.4v6.7h-12.9v9.2h9.9v6.7h-9.9v10.5h13.5v6.7L113.2,212z"/>
	<path class="st1" d="M113.2,257.9v-39.8h20.4v6.7h-12.9v9.2h9.9v6.7h-9.9v10.5h13.5v6.7H113.2z"/>
	<path class="st1" d="M84.1,166.1v-39.9h7.4v39.8L84.1,166.1z"/>
	<path class="st1" d="M98,166.1v-39.9h8.2l10.3,23.6h0.1v-23.6h6.8v39.8h-7.1L105,140.4h-0.1v25.7L98,166.1z"/>
	<path class="st1" d="M129.5,126.3h10.4c8.5,0,13.3,3.8,13.6,13.8v12.2c-0.3,10-5.1,13.8-13.6,13.8h-10.4V126.3z M136.9,159.4h2.6
		c4.1,0,6.5-2,6.5-7.9V141c0-5.6-1.8-7.9-6.5-7.9h-2.6V159.4z"/>
	<path class="st1" d="M158.4,166.1v-39.9h20.4v6.7h-12.9v9.2h9.9v6.7h-9.9v10.5h13.5v6.7L158.4,166.1z"/>
	<path class="st1" d="M84.1,212v-39.8h10.7c9.2,0,13.6,4.4,13.6,11.9S104,196,94.8,196h-3.3v16H84.1z M91.6,189.7h4
		c3.7,0,5.5-1.9,5.5-5.6s-1.8-5.6-5.5-5.6h-4V189.7z"/>
	<path class="st1" d="M139,211.9v-39.8h8.1l10.4,23.6h0.1v-23.6h6.8v39.8h-7.1l-11.4-25.7h-0.1v25.7H139z"/>
	<path class="st1" d="M84.1,218.1h10.3c8.5,0,13.3,3.8,13.6,13.8v12.2c-0.3,10-5.1,13.8-13.6,13.8H84.1V218.1z M91.6,251.2h2.6
		c4.1,0,6.5-2,6.5-7.9v-10.5c0-5.6-1.8-7.9-6.5-7.9h-2.6V251.2z"/>
	<path class="st1" d="M139,257.8V218h8.1l10.4,23.6h0.1V218h6.8v39.8h-7.1l-11.4-25.7h-0.1v25.7L139,257.8z"/>
	<path class="st1" d="M193.6,218.1v6.7h-8.7v33.1h-7.4v-33.1h-8.7v-6.7H193.6z"/>
	<polygon class="st2" points="207.4,45 207.4,49.6 218.7,49.6 218.7,417.7 218.7,452.8 177.6,452.8 177.6,457.4 223.4,457.4 
		223.4,417.7 223.4,45 	"/>
	<polygon class="st2" points="30.1,417.7 30.1,49.6 70.2,49.6 70.2,45 25.5,45 25.5,457.4 99.8,457.4 99.8,452.8 30.1,452.8 	"/>
	<path class="st2" d="M64.1,426.8v10.1H40.8v-9.6c0-4.8,2.7-7.4,6.8-7.4c1.9,0,3.6,1,4.6,2.6c1-1.9,3-3,5.1-2.9
		C61.7,419.5,64.1,422.6,64.1,426.8z M45.9,427.6v3.6h3.8v-3.6c0.1-1-0.7-2-1.7-2.1c-1-0.1-2,0.7-2.1,1.7
		C45.9,427.4,45.9,427.5,45.9,427.6z M54.9,427.3v3.9H59v-3.9c0.1-1.1-0.7-2-1.7-2.1c-0.1,0-0.2,0-0.3,0c-1.1-0.1-2,0.7-2,1.8
		C54.9,427.1,54.9,427.2,54.9,427.3L54.9,427.3z"/>
	<path class="st2" d="M64.1,402.9l-8.7,4.1v1.9h8.7v5.7H40.8v-9.2c0-5.2,3.7-8,7.5-8c2.6,0,5,1.5,6.1,3.8l9.7-5V402.9z M45.9,405.8
		v3.2h4.7v-3.2c0-1.3-1.1-2.4-2.4-2.4S45.9,404.5,45.9,405.8z"/>
	<path class="st2" d="M64.1,392.6H40.8v-15.8h5.1v10.1h3.9v-8.6h5.1v8.6H59v-10.1h5.1V392.6z"/>
	<path class="st2" d="M64.1,350.9v4.7l-11.5,3.8l11.5,3.8v4.6l-23.3,6.4v-6l12.3-3l-12.3-3.8v-4.1l12.3-3.8l-12.3-3v-6L64.1,350.9z"
		/>
	<path class="st2" d="M64.1,341.4H40.8v-15.8h5.1v10.1h3.9V327h5.1v8.6H59v-10.1h5.1V341.4z"/>
	<path class="st2" d="M64.1,309.1l-8.7,4.1v1.9h8.7v5.7H40.8v-9.2c0-5.2,3.7-8,7.5-8c2.6,0,5,1.5,6.1,3.8l9.7-5V309.1z M45.9,311.9
		v3.2h4.7v-3.2c0-1.3-1.1-2.4-2.4-2.4S45.9,310.6,45.9,311.9z"/>
	<path class="st2" d="M64.3,292.7c0,3.6-0.7,6.5-3.1,8.8l-3.7-3.7c1.2-1.2,1.6-3.3,1.6-5.2c0-2.2-0.8-3.3-2.1-3.3
		c-0.5,0-1,0.1-1.4,0.5c-0.4,0.4-0.6,1-0.6,1.5l-0.4,2.8c-0.2,1.7-0.9,3.4-2.1,4.7c-1.3,1.1-3,1.7-4.7,1.6c-4.2,0-7.4-3.2-7.4-8.5
		c0-3.3,0.8-5.9,2.8-7.9l3.6,3.6c-1.1,1.2-1.6,2.8-1.4,4.4c0,2,1.1,2.8,2.2,2.8c0.4,0,0.8-0.2,1.1-0.5c0.4-0.4,0.6-1,0.7-1.6L50,290
		c0.1-1.7,0.8-3.3,1.9-4.6c1.4-1.3,3.2-1.9,5.1-1.7C61.7,283.7,64.3,287.8,64.3,292.7z"/>
	<path class="st2" d="M64.1,258l-3.5,1.1v7.2l3.5,1.1v6L40.8,265v-4.4l23.3-8.5V258z M49.6,262.5l6.2,2.1v-4.1L49.6,262.5z"/>
	<path class="st2" d="M64.3,242.8c0,3.6-0.7,6.5-3.1,8.8l-3.7-3.7c1.2-1.2,1.6-3.3,1.6-5.2c0-2.3-0.8-3.3-2.1-3.3
		c-0.5,0-1,0.1-1.4,0.5c-0.4,0.4-0.6,1-0.6,1.5l-0.4,2.8c-0.2,1.7-0.9,3.4-2.1,4.7c-1.3,1.1-3,1.7-4.7,1.6c-4.2,0-7.4-3.2-7.4-8.5
		c0-3.3,0.8-5.9,2.8-7.9l3.6,3.6c-1.1,1.2-1.6,2.8-1.4,4.4c0,2,1.1,2.8,2.2,2.8c0.4,0,0.8-0.2,1.1-0.4c0.4-0.4,0.6-1,0.7-1.6
		l0.4-2.8c0.1-1.7,0.8-3.3,1.9-4.6c1.4-1.3,3.2-1.9,5.1-1.7C61.7,233.8,64.3,237.9,64.3,242.8z"/>
	<path class="st2" d="M64.3,223.3c0,3.6-0.7,6.5-3.1,8.8l-3.7-3.7c1.2-1.2,1.6-3.3,1.6-5.2c0-2.3-0.8-3.3-2.1-3.3
		c-0.5,0-1,0.1-1.4,0.5c-0.4,0.4-0.6,1-0.6,1.5l-0.4,2.8c-0.2,1.7-0.9,3.4-2.1,4.7c-1.3,1.1-3,1.7-4.7,1.6c-4.2,0-7.4-3.2-7.4-8.5
		c0-3.3,0.8-5.9,2.8-7.9l3.6,3.6c-1.1,1.2-1.6,2.8-1.4,4.4c0,2,1.1,2.8,2.2,2.8c0.4,0,0.8-0.2,1.1-0.5c0.4-0.4,0.6-1,0.7-1.6
		l0.4-2.8c0.1-1.7,0.8-3.3,1.9-4.6c1.4-1.3,3.2-1.9,5.1-1.7C61.7,214.3,64.3,218.3,64.3,223.3z"/>
	<path class="st2" d="M61.7,195.7c3.5,3.6,3.5,9.4,0,13c-2.4,2.5-5.7,2.4-9.2,2.4s-6.8,0.1-9.2-2.4c-3.5-3.6-3.5-9.4,0-13
		c2.4-2.4,5.7-2.4,9.2-2.4C56,193.3,59.2,193.3,61.7,195.7z M46.7,199.9c-1.3,1.1-1.4,3.1-0.2,4.4c0.1,0.1,0.1,0.2,0.2,0.2
		c0.7,0.5,1.5,0.9,5.7,0.9s5-0.3,5.7-0.9c1.3-1.1,1.4-3,0.3-4.3c-0.1-0.1-0.2-0.2-0.3-0.3c-0.7-0.5-1.4-0.9-5.7-0.9
		S47.4,199.4,46.7,199.9L46.7,199.9z"/>
	<path class="st2" d="M64.3,181.1c0.1,2.4-0.9,4.8-2.6,6.5c-2.4,2.4-5.7,2.4-9.2,2.4s-6.8,0.1-9.2-2.4c-1.7-1.7-2.7-4.1-2.6-6.5
		c0-4.4,2.5-8,7.6-8.8v5.8c-1.5,0.2-2.6,1.5-2.5,3c0,0.9,0.3,1.7,1,2.3c0.7,0.5,1.5,0.9,5.8,0.9s5.1-0.4,5.8-0.9
		c0.7-0.6,1-1.4,1-2.3c0.1-1.5-1-2.8-2.5-3v-5.8C61.8,173.1,64.3,176.7,64.3,181.1z"/>
	<path class="st2" d="M64.1,168.5H40.8v-5.7h23.3V168.5z"/>
	<path class="st2" d="M64.1,144.2l-3.5,1.1v7.2l3.5,1.1v6l-23.3-8.5v-4.4l23.3-8.5V144.2z M49.6,148.7l6.2,2.1v-4.1L49.6,148.7z"/>
	<path class="st2" d="M45.9,128.2h18.2v5.7H45.9v5.7h-5.1v-17.2h5.1V128.2z"/>
	<path class="st2" d="M64.1,119.3H40.8v-5.7h23.3V119.3z"/>
	<path class="st2" d="M61.7,94.1c3.5,3.6,3.5,9.4,0,13c-2.4,2.4-5.7,2.3-9.2,2.3s-6.8,0.1-9.2-2.3c-3.5-3.6-3.5-9.4,0-13
		c2.5-2.5,5.7-2.4,9.2-2.4S59.2,91.6,61.7,94.1z M46.7,98.3c-1.3,1.1-1.4,3.1-0.2,4.3c0.1,0.1,0.1,0.2,0.2,0.2
		c0.7,0.5,1.5,0.8,5.7,0.8s5-0.3,5.7-0.8c1.3-1.1,1.4-3,0.4-4.2c-0.1-0.1-0.2-0.2-0.4-0.4c-0.7-0.5-1.4-0.8-5.7-0.8
		S47.4,97.8,46.7,98.3z"/>
	<path class="st2" d="M64.1,74.4l-11.7,7.5h11.7v5.7H40.8v-5l11.7-7.5H40.8v-5.7h23.3V74.4z"/>
	<path class="st2" d="M81.6,55.4c-1.7,0.1-3.3-0.6-4.4-1.8c-1.7-1.7-1.6-3.9-1.6-6.3s-0.1-4.6,1.6-6.3c1.2-1.2,2.8-1.8,4.4-1.8
		c3.1-0.1,5.7,2.1,6,5.2h-4c-0.1-1-1-1.7-2-1.7c-0.6,0-1.2,0.2-1.5,0.7c-0.4,0.5-0.6,1-0.6,3.9s0.2,3.5,0.6,3.9
		c0.4,0.5,1,0.7,1.5,0.7c1,0,1.9-0.7,2-1.7h4C87.3,53.3,84.7,55.6,81.6,55.4z"/>
	<path class="st2" d="M92,55.3V39.4h10.8v3.5h-6.9v2.7h5.9V49h-5.9v2.8h6.9v3.5H92z"/>
	<path class="st2" d="M115.9,55.3l-2.8-5.9h-1.3v5.9h-3.9V39.4h6.3c2.8-0.2,5.2,1.9,5.4,4.7c0,0.1,0,0.3,0,0.4c0,1.8-1,3.4-2.6,4.2
		l3.4,6.6H115.9z M114,42.9h-2.2v3.2h2.2c0.9,0.1,1.7-0.6,1.7-1.5c0.1-0.9-0.6-1.7-1.5-1.7C114.1,42.9,114,42.9,114,42.9z"/>
	<path class="st2" d="M131.6,42.9v12.4h-3.9V42.9h-3.9v-3.5h11.8v3.5H131.6z"/>
	<path class="st2" d="M140,55.3V39.4h3.9v15.9H140z"/>
	<path class="st2" d="M153.3,42.9v2.8h5.9v3.5h-5.9v6.1h-3.9V39.4h10.8v3.5H153.3z"/>
	<path class="st2" d="M165,55.3V39.4h3.9v15.9H165z"/>
	<path class="st2" d="M174.4,55.3V39.4h10.8v3.5h-6.9v2.7h5.9V49h-5.9v2.8h6.9v3.5H174.4z"/>
	<path class="st2" d="M200.5,53.7c-1.2,1.1-2.7,1.6-4.3,1.5h-5.9V39.4h5.9c1.6-0.1,3.1,0.5,4.3,1.6c1.9,1.9,1.6,3.9,1.6,6.4
		S202.3,51.9,200.5,53.7z M197.8,43.7c-0.4-0.6-1.1-1-1.9-0.9h-1.7v9h1.7c0.7,0.1,1.5-0.3,1.9-0.9c0.3-0.4,0.4-0.9,0.4-3.6
		S198.1,44.2,197.8,43.7L197.8,43.7z"/>
	<path class="st1" d="M92.9,290c-2.4,0-4.7-0.9-6.4-2.7c-2.4-2.5-2.4-5.3-2.4-10.1s0-7.6,2.4-10.1c1.7-1.8,4-2.7,6.4-2.7
		c4.5,0,7.9,2.7,8.7,7.8h-3.8c-0.6-2.5-2.2-4.3-5-4.3c-1.3,0-2.6,0.5-3.5,1.5c-1.2,1.4-1.5,2.8-1.5,7.9s0.3,6.5,1.5,7.9
		c0.9,1,2.2,1.5,3.6,1.5c2.7,0,4.4-1.8,5-4.3h3.8C100.8,287.3,97.3,290,92.9,290z"/>
	<path class="st1" d="M118.4,289.8l-5.2-10.6h-4.6v10.6h-3.7v-25.2h9.4c4.6,0,7.6,3.1,7.6,7.4c0.2,3.1-1.9,5.9-4.9,6.7l5.6,11.1
		L118.4,289.8z M114.1,268h-5.5v7.9h5.5c2.5,0,4.2-1.5,4.2-3.9S116.6,268,114.1,268z"/>
	<path class="st1" d="M142.3,289.8l-1.7-5.1H131l-1.7,5.1h-4l9-25.2h3l9,25.2H142.3z M135.9,270.3l-3.8,11.2h7.5L135.9,270.3z"/>
	<path class="st1" d="M152.9,268v7.7H163v3.4h-10.2v10.6h-3.7v-25.2h15.6v3.4L152.9,268z"/>
	<path class="st1" d="M178.2,268v21.8h-3.7V268h-6.7v-3.4h17.2v3.4H178.2z"/>
	<path class="st2" d="M234.4,448.7v8.8h-1v-8.8h-2.8v-0.9h6.6v0.9H234.4z"/>
	<path class="st2" d="M246.3,457.4v-7.4l-2.7,5.8h-0.9l-2.7-5.8v7.4h-1v-9.7h1l3.2,6.9l3.1-6.9h1v9.7H246.3z"/>
</g>
</svg>
